<svg xmlns="http://www.w3.org/2000/svg" version="1.1" xmlns:xlink="http://www.w3.org/1999/xlink" xmlns:svgjs="http://svgjs.dev/svgjs" width="1440" height="560" preserveAspectRatio="none" viewBox="0 0 1440 560"><g mask="url(&quot;#SvgjsMask1002&quot;)" fill="none"><rect width="1440" height="560" x="0" y="0" fill="url(&quot;#SvgjsLinearGradient1003&quot;)"></rect><path d="M1440 0L774.4 0L1440 39.36z" fill="rgba(255, 255, 255, .1)"></path><path d="M774.4 0L1440 39.36L1440 251.26999999999998L429.25 0z" fill="rgba(255, 255, 255, .075)"></path><path d="M429.25 0L1440 251.26999999999998L1440 409.04999999999995L418.76 0z" fill="rgba(255, 255, 255, .05)"></path><path d="M418.76 0L1440 409.04999999999995L1440 467.42999999999995L204.84 0z" fill="rgba(255, 255, 255, .025)"></path><path d="M0 560L136.61 560L0 312.65z" fill="rgba(0, 0, 0, .1)"></path><path d="M0 312.65L136.61 560L484.55 560L0 222.65999999999997z" fill="rgba(0, 0, 0, .075)"></path><path d="M0 222.66000000000003L484.55 560L846.6700000000001 560L0 86.61000000000001z" fill="rgba(0, 0, 0, .05)"></path><path d="M0 86.61000000000001L846.6700000000001 560L965.5000000000001 560L0 73.00000000000001z" fill="rgba(0, 0, 0, .025)"></path></g><defs><mask id="SvgjsMask1002"><rect width="1440" height="560" fill="#ffffff"></rect></mask><linearGradient x1="15.28%" y1="-39.29%" x2="84.72%" y2="139.29%" gradientUnits="userSpaceOnUse" id="SvgjsLinearGradient1003"><stop stop-color="#0e2a47" offset="0"></stop><stop stop-color="#00459e" offset="1"></stop></linearGradient></defs></svg>