<svg xmlns="http://www.w3.org/2000/svg" version="1.1" xmlns:xlink="http://www.w3.org/1999/xlink" xmlns:svgjs="http://svgjs.dev/svgjs" width="1440" height="560" preserveAspectRatio="none" viewBox="0 0 1440 560"><g mask="url(&quot;#SvgjsMask4588&quot;)" fill="none"><rect width="1440" height="560" x="0" y="0" fill="url(&quot;#SvgjsLinearGradient4589&quot;)"></rect><path d="M1440 0L1115.06 0L1440 99.83z" fill="rgba(255, 255, 255, .1)"></path><path d="M1115.06 0L1440 99.83L1440 168.78L951.7299999999999 0z" fill="rgba(255, 255, 255, .075)"></path><path d="M951.73 0L1440 168.78L1440 210.05L695.4300000000001 0z" fill="rgba(255, 255, 255, .05)"></path><path d="M695.4300000000001 0L1440 210.05L1440 248.48000000000002L682.9100000000001 0z" fill="rgba(255, 255, 255, .025)"></path><path d="M0 560L313.16 560L0 292.26z" fill="rgba(0, 0, 0, .1)"></path><path d="M0 292.26L313.16 560L817.1400000000001 560L0 199.58999999999997z" fill="rgba(0, 0, 0, .075)"></path><path d="M0 199.58999999999997L817.1400000000001 560L832.8800000000001 560L0 119.16999999999997z" fill="rgba(0, 0, 0, .05)"></path><path d="M0 119.16999999999996L832.8800000000001 560L1198.17 560L0 58.66999999999996z" fill="rgba(0, 0, 0, .025)"></path></g><defs><mask id="SvgjsMask4588"><rect width="1440" height="560" fill="#ffffff"></rect></mask><linearGradient x1="15.28%" y1="-39.29%" x2="84.72%" y2="139.29%" gradientUnits="userSpaceOnUse" id="SvgjsLinearGradient4589"><stop stop-color="rgba(0, 23, 52, 1)" offset="0"></stop><stop stop-color="rgba(10, 44, 87, 1)" offset="0"></stop><stop stop-color="rgba(165, 204, 255, 1)" offset="0"></stop><stop stop-color="rgba(34, 90, 163, 1)" offset="0.47"></stop><stop stop-color="rgba(0, 15, 34, 1)" offset="1"></stop><stop stop-color="rgba(0, 2, 4, 1)" offset="1"></stop></linearGradient></defs></svg>